<mxfile host="app.diagrams.net" modified="2024-09-23T03:49:28.220Z" agent="Mozilla/5.0 (Windows NT 10.0; Win64; x64) AppleWebKit/537.36 (KHTML, like Gecko) Chrome/114.0.0.0 Safari/537.36 Edg/114.0.1823.79" version="24.4.14" etag="pSXUlaZai6RnRRuDUCNa" type="github">
  <diagram name="Page-1" id="y8P5gI3v2mSomhjNhB57">
    <mxGraphModel>
      <root>
        <mxCell id="0" />
        <mxCell id="1" parent="0" />
      </root>
    </mxGraphModel>
  </diagram>
</mxfile>
